<svg width="50" height="75" viewBox="0 0 54 79" fill="none" xmlns="http://www.w3.org/2000/svg">
<path fill-rule="evenodd" clip-rule="evenodd" d="M53.7239 36.4129L15.1768 78.1349C15.1221 78.1957 15.0497 78.2372 14.9701 78.2533C14.8905 78.2695 14.8078 78.2595 14.7342 78.2248C14.6606 78.19 14.6 78.1324 14.5611 78.0604C14.5222 77.9883 14.5071 77.9055 14.5181 77.8242L18.8287 42.4874H0.985934C0.656596 42.4874 0.488267 42.0878 0.707826 41.8437L39.255 0.129081C39.3077 0.068167 39.3783 0.0259613 39.4564 0.00868901C39.5346 -0.00858325 39.6162 -7.96154e-06 39.6891 0.0331489C39.7621 0.0663057 39.8226 0.12229 39.8617 0.192847C39.9008 0.263405 39.9165 0.344801 39.9064 0.425034L35.603 35.7692H53.4385C53.7752 35.7692 53.9508 36.1688 53.7239 36.4129Z" fill="#D80C18"/>
</svg>
