<svg width="55" height="55" viewBox="0 0 67 68" fill="none" xmlns="http://www.w3.org/2000/svg">
<path d="M29.7261 29.8687H1.52167C0.969383 29.8687 0.521667 30.3164 0.521667 30.8687V54.1112C0.521667 54.1753 0.528048 54.2408 0.540625 54.3037C2.472 63.9617 10.8003 66.764 14.7355 66.9565H58.5616C58.5616 66.9565 64.9945 64.9871 66.2378 59.5274C66.2534 59.4588 66.2608 59.3876 66.2608 59.3173V2.44417C66.2608 1.90343 65.8357 1.4607 65.2952 1.44571C58.4664 1.25641 45.7317 1.03158 42.571 1.47338C39.3549 1.92295 36.9927 5.67847 36.1325 7.66693C36.081 7.78603 36.0563 7.91459 36.0563 8.04436V56.6846C36.0563 57.2369 35.6086 57.6846 35.0563 57.6846H31.7261C31.1738 57.6846 30.7261 57.2369 30.7261 56.6846V30.8687C30.7261 30.3164 30.2784 29.8687 29.7261 29.8687Z" fill="#08CC5A"/>
<path d="M58.5616 66.9565C58.5616 66.9565 64.9945 64.9871 66.2378 59.5274C66.2534 59.4588 66.2608 59.3876 66.2608 59.3173V2.44417C66.2608 1.90343 65.8357 1.4607 65.2952 1.44571C58.4664 1.25641 45.7317 1.03158 42.571 1.47338C39.3549 1.92295 36.9927 5.67847 36.1325 7.66693C36.081 7.78603 36.0563 7.91459 36.0563 8.04436V56.6846C36.0563 57.2369 35.6086 57.6846 35.0563 57.6846H31.7261C31.1738 57.6846 30.7261 57.2369 30.7261 56.6846V30.8687C30.7261 30.3164 30.2784 29.8687 29.7261 29.8687H1.52167C0.969383 29.8687 0.521667 30.3164 0.521667 30.8687V54.1112C0.521667 54.1753 0.528048 54.2408 0.540625 54.3037C2.472 63.9617 10.8003 66.764 14.7355 66.9565M58.5616 66.9565H14.7355M58.5616 66.9565C58.5616 66.9565 31.8507 66.9565 14.7355 66.9565" stroke="#08CC5A"/>
</svg>
