<svg width="25" height="26" viewBox="0 0 25 26" fill="none" xmlns="http://www.w3.org/2000/svg">
<path d="M24.6582 23.2764L23.2764 24.6582C22.8174 25.1172 22.0752 25.1172 21.6211 24.6582L16.748 19.79C16.5283 19.5703 16.4062 19.2725 16.4062 18.96V18.1641C14.6826 19.5117 12.5146 20.3125 10.1562 20.3125C4.5459 20.3125 0 15.7666 0 10.1562C0 4.5459 4.5459 0 10.1562 0C15.7666 0 20.3125 4.5459 20.3125 10.1562C20.3125 12.5146 19.5117 14.6826 18.1641 16.4062H18.96C19.2725 16.4062 19.5703 16.5283 19.79 16.748L24.6582 21.6162C25.1123 22.0752 25.1123 22.8174 24.6582 23.2764ZM16.7969 10.1562C16.7969 6.48438 13.8281 3.51562 10.1562 3.51562C6.48438 3.51562 3.51562 6.48438 3.51562 10.1562C3.51562 13.8281 6.48438 16.7969 10.1562 16.7969C13.8281 16.7969 16.7969 13.8281 16.7969 10.1562Z" fill="black"/>
</svg>
